<?xml version="1.0" encoding="iso-8859-1"?>
<!-- Generator: Adobe Illustrator 19.0.0, SVG Export Plug-In . SVG Version: 6.00 Build 0)  -->
<svg xmlns="http://www.w3.org/2000/svg" xmlns:xlink="http://www.w3.org/1999/xlink" version="1.1" x="512px" y="512px"
viewBox="0 0 512 512" enable-background="new 0 0 512 512" xml:space="preserve" >
<g>
	<g>
		<path d="M503.486,146.769c4.703,0,8.514-3.812,8.514-8.514v-27.471c0-4.702-3.811-8.514-8.514-8.514h-22.288V90.602    c0-4.702-3.811-8.514-8.514-8.514h-176.32c-16.748,0-31.551,8.471-40.363,21.35c-8.811-12.878-23.614-21.35-40.363-21.35H39.317    c-4.703,0-8.514,3.812-8.514,8.514v11.667H8.514c-4.703,0-8.514,3.812-8.514,8.514v310.615c0,4.702,3.811,8.514,8.514,8.514    h55.628c4.703,0,8.514-3.812,8.514-8.514s-3.811-8.514-8.514-8.514H17.029V119.298h13.774v231.536v40.362    c0,4.702,3.811,8.514,8.514,8.514h208.168v13.174H92.523c-4.703,0-8.514,3.812-8.514,8.514s3.811,8.514,8.514,8.514h410.962    c4.703,0,8.514-3.812,8.514-8.514V166.636c0-4.702-3.811-8.514-8.514-8.514s-8.514,3.812-8.514,8.514v246.248H264.514V399.71    h208.168c4.703,0,8.514-3.812,8.514-8.514v-40.362V119.298h13.774v18.956C494.971,142.956,498.782,146.769,503.486,146.769z     M47.832,382.681v-23.333h167.805c14.612,0,26.949,9.895,30.682,23.333H47.832z M247.486,354.149    c-8.56-7.369-19.694-11.828-31.848-11.828H47.832V99.116h167.805c17.561,0,31.848,14.287,31.848,31.848V354.149z M464.167,382.681    H265.679c3.734-13.438,16.071-23.333,30.683-23.333h167.805V382.681z M464.168,342.32H296.363    c-12.154,0-23.289,4.46-31.848,11.828V130.964c0-17.561,14.287-31.847,31.848-31.847h167.805V342.32z" fill="#666666"/>
	</g>
</g>
<g>
	<g>
		<path d="M208.887,119.586H74.927c-4.703,0-8.514,3.812-8.514,8.514v77.197c0,4.702,3.811,8.514,8.514,8.514h133.96    c4.703,0,8.514-3.812,8.514-8.514V128.1C217.401,123.398,213.59,119.586,208.887,119.586z M200.372,196.783H83.441v-60.169    h116.931V196.783z" fill="#666666"/>
	</g>
</g>
<g>
	<g>
		<path d="M208.887,227.624h-15.326c-4.703,0-8.514,3.812-8.514,8.514s3.811,8.514,8.514,8.514h6.812v60.169H83.441v-60.169h81.738    c4.703,0,8.514-3.812,8.514-8.514s-3.811-8.514-8.514-8.514H74.927c-4.703,0-8.514,3.812-8.514,8.514v77.197    c0,4.702,3.811,8.514,8.514,8.514h133.96c4.703,0,8.514-3.812,8.514-8.514v-77.197    C217.401,231.436,213.59,227.624,208.887,227.624z" fill="#666666"/>
	</g>
</g>
<g>
	<g>
		<path d="M437.073,119.586h-133.96c-4.703,0-8.514,3.812-8.514,8.514v77.197c0,4.702,3.811,8.514,8.514,8.514h14.191    c4.703,0,8.514-3.812,8.514-8.514c0-4.702-3.811-8.514-8.514-8.514h-5.676v-60.169h116.931v60.169h-82.874    c-4.703,0-8.514,3.812-8.514,8.514c0,4.702,3.811,8.514,8.514,8.514h91.388c4.703,0,8.514-3.812,8.514-8.514V128.1    C445.588,123.398,441.777,119.586,437.073,119.586z" fill="#666666"/>
	</g>
</g>
<g>
	<g>
		<path d="M437.073,227.624h-133.96c-4.703,0-8.514,3.812-8.514,8.514v77.197c0,4.702,3.811,8.514,8.514,8.514h133.96    c4.703,0,8.514-3.812,8.514-8.514v-77.197C445.588,231.436,441.777,227.624,437.073,227.624z M428.559,304.821H311.628v-60.169    h116.931V304.821z" fill="#666666"/>
	</g>
</g>
<g>
</g>
<g>
</g>
<g>
</g>
<g>
</g>
<g>
</g>
<g>
</g>
<g>
</g>
<g>
</g>
<g>
</g>
<g>
</g>
<g>
</g>
<g>
</g>
<g>
</g>
<g>
</g>
<g>
</g>
</svg>
