<?xml version="1.0" encoding="utf-8"?>
<!-- Generator: Adobe Illustrator 16.0.0, SVG Export Plug-In . SVG Version: 6.00 Build 0)  -->
<!DOCTYPE svg PUBLIC "-//W3C//DTD SVG 1.1//EN" "http://www.w3.org/Graphics/SVG/1.1/DTD/svg11.dtd">
<svg version="1.1" id="Capa_1" xmlns="http://www.w3.org/2000/svg" xmlns:xlink="http://www.w3.org/1999/xlink" x="0px" y="0px"
	 viewBox="0 0 40 40" enable-background="new 0 0 40 40" xml:space="preserve">
<g>
	<path fill="#00C200" d="M34.609,40C37.587,40,40,37.587,40,34.609V5.391C40,2.413,37.586,0,34.609,0H5.391C2.414,0,0,2.413,0,5.391
		v29.219C0,37.586,2.414,40,5.391,40h14.41"/>
	<path fill="#475993" d="M19.801,14.895"/>

		<path fill="#FFFFFF" d="M34.518,19.275c0.067-0.354,0.102-0.652,0.116-0.886c0.025-0.386-0.003-0.958-0.014-1.138
			c-0.355-6.18-6.767-11.104-14.625-11.104c-8.085,0-14.639,5.213-14.639,11.645c0,5.911,5.537,10.793,12.711,11.543
			c0.438,0.047,0.755,0.442,0.706,0.881l-0.305,2.749c-0.069,0.624,0.576,1.078,1.141,0.806c6.061-2.926,9.686-5.936,11.85-8.542
			c0.395-0.474,1.678-2.273,1.939-2.746C33.955,21.48,34.338,20.403,34.518,19.275z"/>
		<path fill="#00C500" d="M11.946,20.151v-4.905c0-0.414-0.335-0.749-0.749-0.749l0,0c-0.414,0-0.749,0.335-0.749,0.749V20.9
			c0,0.413,0.335,0.748,0.749,0.748h2.995c0.414,0,0.749-0.335,0.749-0.748l0,0c0-0.414-0.335-0.749-0.749-0.749H11.946z"/>
		<path fill="#00C500" d="M16.565,21.648h-0.327c-0.323,0-0.585-0.262-0.585-0.584v-5.982c0-0.323,0.262-0.585,0.585-0.585h0.327
			c0.323,0,0.585,0.262,0.585,0.585v5.982C17.15,21.387,16.888,21.648,16.565,21.648z"/>
		<path fill="#00C500" d="M22.617,15.247V18.7c0,0-2.991-3.901-3.037-3.952c-0.143-0.16-0.354-0.259-0.587-0.25
			c-0.407,0.016-0.72,0.372-0.72,0.779V20.9c0,0.413,0.335,0.748,0.749,0.748l0,0c0.414,0,0.749-0.335,0.749-0.748v-3.433
			c0,0,3.036,3.935,3.081,3.977c0.133,0.125,0.311,0.202,0.507,0.204c0.416,0.004,0.756-0.363,0.756-0.779v-5.623
			c0-0.414-0.335-0.749-0.749-0.749l0,0C22.952,14.498,22.617,14.833,22.617,15.247z"/>
		<path fill="#00C500" d="M29.73,15.247L29.73,15.247c0-0.414-0.335-0.749-0.748-0.749h-2.996c-0.414,0-0.749,0.335-0.749,0.749
			V20.9c0,0.413,0.335,0.748,0.749,0.748h2.996c0.413,0,0.748-0.335,0.748-0.748l0,0c0-0.414-0.335-0.749-0.748-0.749h-2.247v-1.33
			h2.247c0.413,0,0.748-0.335,0.748-0.749l0,0c0-0.414-0.335-0.749-0.748-0.749h-2.247v-1.329h2.247
			C29.396,15.995,29.73,15.66,29.73,15.247z"/>

</g>
</svg>
